<?xml version="1.0" encoding="utf-8"?>
<!-- Generator: Adobe Illustrator 23.0.2, SVG Export Plug-In . SVG Version: 6.00 Build 0)  -->
<svg version="1.1" id="圖層_1" xmlns="http://www.w3.org/2000/svg" xmlns:xlink="http://www.w3.org/1999/xlink" x="0px" y="0px"
	 viewBox="0 0 257 256" style="enable-background:new 0 0 257 256;" xml:space="preserve">
<style type="text/css">
	.st0{fill:#F39800;}
	.st1{fill:#231815;}
</style>
<g>
	<path class="st0" d="M9.2,98.7c0,0,53.2,31.2,60.5,93.5c47.7,16.5,58.7,36.7,58.7,36.7h1.8c0,0,16.5-23.8,58.7-36.7
		c9.2-66,58.7-91.7,58.7-91.7V95c0,0-16.5-47.7-55-71.5c-1.8,0-1.8,0-3.7,0c-45.8,33-93.5,20.2-119.1,0h-1.8
		C23.8,49.2,9.2,98.7,9.2,98.7z"/>
	<path class="st1" d="M64.2,16.2c3.7,0,1.8,0,5.5,0c16.5,18.3,75.2,38.5,121,0c1.8,0,1.8,0,3.7,0C236.5,40,256.6,95,256.6,95v5.5
		c0,0-53.2,23.8-62.3,97.2c-45.8,14.7-64.2,42.2-64.2,42.2h-1.8c0,0-12.8-23.8-64.2-42.2C55,129.8,0,100.5,0,100.5
		S16.5,43.7,64.2,16.2z M9.2,98.7c0,0,53.2,31.2,60.5,93.5c47.7,16.5,58.7,36.7,58.7,36.7h1.8c0,0,16.5-23.8,58.7-36.7
		c9.2-66,58.7-91.7,58.7-91.7V95c0,0-16.5-47.7-55-71.5c-1.8,0-1.8,0-3.7,0c-45.8,33-93.5,20.2-119.1,0h-1.8
		C23.8,49.2,9.2,98.7,9.2,98.7z"/>
	<path class="st1" d="M42.2,71.2c5.5-14.7,9.2-23.8,9.2-9.2c0,29.3,38.5,36.7,45.8,36.7c1.8,1.8,7.3,14.7,7.3,14.7l14.7,29.3h18.3
		c0,0,20.2-42.2,22-45.8c3.7,0,44-5.5,45.8-36.7c1.8-18.3,7.3,0,9.2,12.8c3.7,29.3-29.3,42.2-42.2,45.8
		c-5.5,9.2-29.3,58.7-29.3,58.7h-25.7c0,0-27.5-51.3-33-58.7C64.2,115.2,34.8,95,42.2,71.2z"/>
	<path class="st1" d="M177.8,217.8h11c0,0,1.8,0,1.8,1.8v3.7c0,0,0,1.8-1.8,1.8h-9.2v3.7c0,0,0,0-1.8,0H176v-9.2
		C176,217.8,176,217.8,177.8,217.8z M179.6,219.6L179.6,219.6l7.3,1.8v-1.8H179.6z"/>
	<path class="st1" d="M190.6,228.8v-5.5c0,0,0,0,0-1.8c0,0,0,0,1.8,0h11c1.8,0,1.8,1.8,1.8,1.8v1.8l-1.8,1.8c0,0,0,0-1.8,0v-1.8
		h-9.2v5.5C192.5,228.8,192.5,228.8,190.6,228.8L190.6,228.8z"/>
	<path class="st1" d="M216.3,221.5C216.3,221.5,218.1,221.5,216.3,221.5c1.8,1.8,1.8,1.8,1.8,1.8v7.3v1.8c0,0,0,0-1.8,1.8h-9.2
		c0,0,0,0-1.8,0c0,0,0,0,0-1.8v-7.3v-1.8l1.8-1.8L216.3,221.5z M207.1,225.1v5.5h7.3v-5.5H207.1z"/>
</g>
</svg>
